<?xml version="1.0" encoding="UTF-8"?>
<svg viewBox="0 0 128 128" xmlns="http://www.w3.org/2000/svg">
 <defs>
  <filter id="a" x="-.12514" y="-.32663" width="1.2503" height="1.6533">
   <feGaussianBlur stdDeviation="1.96343"/>
  </filter>
 </defs>
 <g transform="matrix(.95152 0 0 .95152 -5.1912 -26.352)">
  <path transform="matrix(1.051 0 0 1.051 21.751 27.192)" d="m55.242 112.04c-5.4647 0.42238-6.8228-3.2599-11.495 0.88951-1.4133 1.4133-1.7254 4.2172-1.3343 5.7818 2.8746 3.851 5.9986 2.8796 10.605 4.4475 2.2763 0.56909 4.2629 0.88951 7.116 0.88951 2.8998 0 4.684 1.4384 7.5608 0 2.2311-1.1155 4.2907-0.77189 6.2266-2.2238 1.5124-1.1343 2.2264-3.1238 2.6685-4.8923 0.78383-3.1353-1.8766-3.6068-3.558-4.4475-2.161-1.0805-5.9064-0.41361-7.5608 0-1.7733 0.44332-3.316-2.2238-5.7818-2.2238-1.9994 0-1.0594 1.779-4.4475 1.779z" fill-opacity=".7284" fill-rule="evenodd" filter="url(#a)"/>
  <path d="m80.999 145.46c-3.3941 0.66703-6.1868 1.3049-9.0684 3.4007-0.64141 0.76834-0.6123 1.5098-0.56678 2.456 0.2536 0.81654 0.54577 1.6163 0.7557 2.456 2.9413 0.27466 6.1904 2.0364 9.262 1.0474 3.2262 0.04122 6.487-1.0884 9.1582-3.0311 0.61717-1.827-0.04528-4.3042-0.18893-6.329-2.9753 0.93498-6.3575 0.78351-9.3518 0z" fill="#e6e6e6" fill-rule="evenodd" stroke="#333" stroke-width="1.1232"/>
  <path d="m72.119 152.17c3.4748-0.59444 6.9482 1.6858 10.566 1.2013 3.3598-0.11115 5.1032-2.5529 7.5706-2.7127" fill="none" stroke="#333" stroke-width="1.1232"/>
  <path d="m92.996 146.03c-2.7045 1.445-6.775 2.1846-9.4463 4.4398-0.45627 0.96074-0.43777 2.0714-0.56678 3.1173 0.15403 1.3827 0.96766 2.257 1.9837 3.1173 2.743 1.0611 5.8018 0.23344 8.5961-0.28339 2.4523-0.08601 5.3442-0.64823 7.0523-2.5181 2.6396-2.4686 2.197-4.8125 1.9217-8.2507-3.1801 0.24098-6.3522 0.37785-9.5407 0.37785z" fill="#e6e6e6" fill-rule="evenodd" stroke="#333" stroke-width="1.1232"/>
  <path d="m73.453 104.46c-0.81381 1.2691-0.87613 2.5605-0.80154 4.0077-0.31238 2.9811 1.1908 5.8016 0.26718 8.6834-0.8307 1.7549-1.33 2.8998-2.8054 4.1413-1.6198 0.07176-2.7986 0.89179-3.2062 2.271 0.94683 0.95579 2.3002 0.62856 3.6069 0.53436 0.38852 1.454-1.7329 3.3491-1.8703 5.0764 1.8992 2.2698 3.4894-1.4879 3.6069-3.2062 0.22589 1.6531-0.69757 4.3427-0.53436 5.4772 2.1765 0.42688 2.9292-3.221 2.939-5.0764-0.04306 2.0343-1.0573 4.0726 1.3359 4.0077 1.6423-1.2097 1.251-3.4626 1.4695-5.3436 0.64553-2.9648 1.8458-5.773 2.1374-8.817-0.32317-4.4685 1.8208-10.018-0.13359-14.161-2.8748-1.4419-3.8761 1.2317-6.0116 2.4046z" fill="#e9d2af" fill-rule="evenodd" stroke="#3f2d10" stroke-width="1.1232"/>
  <path d="m80.591 87.298c-2.8844 2.9876-4.8052 6.3829-6.0456 10.285-1.5488 2.7534-3.1353 5.2044-3.4789 8.4062 4.2396 0.79999 8.5319-0.04046 12.736 0.53716 1.9244-5.1094 1.5955-10.715 1.7003-16.098" fill="#b54ab5" fill-rule="evenodd" stroke="#532153" stroke-width="1.1232"/>
  <path d="m92.823 122.36c-0.15514 0.83256-0.95077 2.9944-0.66795 4.4085 0.21727 1.0864 0.54269 2.1708 0.80154 3.2062 0.55433 2.7202-0.47641 5.3247-0.66795 8.0154 0.55049 2.3606-0.14602 6.0897 1.4695 7.7482 2.8107 2.1244 7.1228 2.025 8.6834-0.66795-0.26746-1.0698-0.06394-1.7078-0.53436-2.8054-1.3745-2.9274-0.7235-6.2671-0.26719-9.3513 0.06169-4.0514 0.82017-7.9684 0.66796-12.023-2.3163-0.85591-8.0228-0.23628-9.4849 1.4695z" fill="#00325c" fill-rule="evenodd" stroke="#00192e" stroke-width="1.1232"/>
  <path d="m80.934 122.22c-0.15514 0.83256-0.95077 2.9944-0.66795 4.4085 1.0083 2.9872 1.1478 5.7777 0.40077 8.817 0.01702 2.9814-0.93216 7.9615 1.2023 10.153 3.0411 1.2045 6.0985 1.9721 8.6834-0.66795-1.3311-4.1165-1.4358-7.8694-0.80154-12.157 0.03087-4.0616 0.82121-7.9404 0.66795-12.023-2.3163-0.85591-8.0228-0.23628-9.4849 1.4695z" fill="#00325c" fill-rule="evenodd" stroke="#00192e" stroke-width="1.1232"/>
  <path d="m107.56 125.73c-2.9979-3.6991-0.93293-9.2394-0.55056-13.476-1.3125-5.2977 2.0966-10.952 0.97148-16.248-0.49778-3.3192-1.5993-6.3078-3.2671-9.202-1.9069-2.5789-4.4536-4.0462-7.6906-4.2117-4.153 0.6083-8.3452 0.04778-12.469 0.94463-3.043 1.324-5.1402 3.5172-5.4788 6.8013-0.14698 2.9646 0.05224 5.636-1.3225 8.3127-0.41376 4.7573-1.992 9.5875-1.3225 14.358 0.95594 5.5503-1.426 7.8284-0.81104 13.364 4.7899-2.7421 10.998 1.3914 16.437 0.78255 4.5614-1.6307 12.674 2.0324 15.504-1.4264z" fill="#b54ab5" fill-rule="evenodd" stroke="#532153" stroke-width="1.1232"/>
  <path d="m97.589 92.68c0.13751 2.7154 0.82121 5.2052 1.7003 7.746 0.71015 2.6022 0.91652 5.2554 0.94463 7.9349 4.4934-0.47713 9.303-2.3648 13.792-3.7785-0.47122-2.2127-1.0803-4.3849-1.5114-6.6124-0.71375-2.9326-3.0518-4.6451-4.3453-7.1792-1.5785-2.2081-3.7246-3.2512-6.4235-2.456" fill="#b54ab5" fill-rule="evenodd" stroke="#532153" stroke-width="1.1232"/>
  <path d="m83.813 85.773c1.8582 4.8996 11.064 3.2844 14.327-1.3778-1.3018-2.6477-2.2239-5.8275-5.0764-7.2139-2.4225-0.27659-4.7738 0.39701-7.0803 1.0687-1.8576 1.4488-2.5854 5.6621-2.1699 7.523z" fill="#e9d2af" fill-rule="evenodd" stroke="#3f2d10" stroke-width="1.1232"/>
  <path d="m86.761 37.303c-11.169-0.06541-15.587 7.3037-15.736 16.889 0 2.0051 0.92678 5.9513 1.4236 7.9388-0.23129 3.9134-1.2009 6.8705-0.04584 10.69 1.3432 5.4042 4.9732 8.2809 10.202 9.4463 4.6416-0.09115 10.88-1.6675 14.358-4.9121 4.9808-4.0756 6.4804-10.974 8.3127-17.003 0.65129-5.7593-2.1429-11.254-3.7785-16.625-2.2777-5.8783-9.1668-7.2462-14.736-6.4235z" fill="#e9d2af" fill-rule="evenodd" stroke="#3f2d10" stroke-width="1.1232"/>
  <path d="m72.403 44.86c-0.68894-10.54 28.059-14.021 29.56-5.6868 8.0757 0.6201 5.8493 20.93 3.8433 28.049-8.3316-0.08488-1.7323-9.3596-6.576-11.782-2.0637-0.51593-2.7533 1.0662-4.5342 1.5114-3.772-2.4244 0.04287-9.8838-6.0456-12.469-2.9729 1.2015-6.7411 3.0557-9.8241 0-2.6352 0-4.1794 1.2755-6.4235 0.37785z" fill="#28170b" fill-rule="evenodd" stroke="#120a04" stroke-width="1.1232"/>
  <path d="m80.827 54.728c-1.4598 3.2046-0.33027 5.0835 2.7959 4.6203 0.96032 0.4228 2.9611-1.9197 2.5019-3.4734 0.34367-4.1725-3.2734-4.263-5.2978-1.147z" fill="#fff" fill-rule="evenodd" stroke="#333" stroke-width="1.1232"/>
  <path d="m74.415 52.591c-2.5155 0.5649-3.696 2.4861-3.2062 5.3436 2.9041 5.3628 8.4269-2.3531 3.2062-5.3436z" fill="#fff" fill-rule="evenodd" stroke="#333" stroke-width="1.1232"/>
  <path d="m78.155 56.598c-0.44414 2.5762-2.9379 3.7755-4.2749 5.0764-0.68313 2.8586-0.27283 4.9095 2.939 4.2749 2.2443-1.0427 3.1452-2.7723 3.4734-5.0764" fill="#e9d2af" fill-rule="evenodd" stroke="#3f2d10" stroke-width="1.1232"/>
  <path d="m96.858 57.133c6.2663-2.4896 5.1622 6.7909 0.53436 5.878" fill="#e9d2af" fill-rule="evenodd" stroke="#3f2d10" stroke-width="1.1232"/>
  <path d="m98.06 58.602c0.90957-1.5955 3.305 1.2609 0 2.8054" fill="#e9d2af" fill-rule="evenodd" stroke="#3f2d10" stroke-width="1.1232"/>
  <path d="m75.483 73.698c0.43755 1.1496 7.8884 3.5684 12.168 0.37785" fill="none" stroke="#3f2d10" stroke-width="1.1232"/>
  <path d="m84.066 55.497c0.4131-0.38116-2.006-1.0924-1.8703 1.0687 0.10521 1.6751 2.1298 2.0739 2.8054 1.6031 1.3569-0.94561-0.28067-3.006-0.93513-2.6718z" fill-rule="evenodd" stroke="#000" stroke-width="1.1232"/>
  <path d="m74.069 56.221c0.48877-1.0139-2.3268-0.20056-1.6031 2.1374 0.49946 1.6136 2.2707 0.62086 2.4046 0.53436 1.7958-1.16 0.3436-4.117-0.80154-2.6718z" fill-rule="evenodd" stroke="#000" stroke-width="1.1232"/>
  <path d="m83.738 154.72c3.3433 0.71697 6.9714 1.0878 9.5637 0.06205 3.1159-0.41243 5.895-1.0586 8.7621-4.124" fill="none" stroke="#333" stroke-width="1.1232"/>
  <g transform="translate(.35355,.70711)">
   <path d="m69.965 113.15 5.9064-2.9887 7.3269 1.7932-3.9625 3.7358-9.2707-2.5404z" fill="#4d4d4d" fill-rule="evenodd" stroke="#1a1a1a" stroke-width="1.051"/>
   <path d="m81.554 111.73 5.0092-3.437 5.4578 1.4196 1.6448 5.1554 3.1401 0.67245-0.37382 16.139-3.813 1.6438-11.065-21.593z" fill="#4d4d4d" fill-rule="evenodd" stroke="#1a1a1a" stroke-width="1.051"/>
   <path d="m70.047 113.32 8.6543 2.1852 3.1165-3.7568 6.0295 1.598 1.0395 5.4625 3.851 1.3228-0.43575 13.203-22.204-5.4946-0.0513-14.52z" fill="#4d4d4d" fill-rule="evenodd" stroke="#1a1a1a" stroke-width="1.051"/>
   <path d="m62.166 124.35 19.912-5.8991c2.6052 0.41834 8.8473 6.9698 5.6073 12.403l-22.379 7.1693c-7.4191-0.38694-10.205-11.232-3.1401-13.673z" fill="#4d4d4d" fill-rule="evenodd" stroke="#1a1a1a" stroke-width="1.051"/>
   <path d="m62.288 125.12c-5.1283 0.6811-5.2931 10.007 2.542 11.955 5.0777-0.54593 4.5253-12.054-2.542-11.955z" fill-rule="evenodd"/>
   <path d="m74.526 120.4c7.3933 1.6856 8.435 9.7824 4.9344 13.449l5.9064-2.3162c2.12-3.8283-0.96764-11.185-5.9064-12.851l-4.9344 1.7185z" fill="#333" fill-rule="evenodd" stroke="#1a1a1a" stroke-width="1.051"/>
   <path d="m87.759 113.23 4.112-3.5117" fill="none" stroke="#1a1a1a" stroke-width="1.051"/>
   <path d="m89.254 118.75 4.4858-3.8853" fill="none" stroke="#1a1a1a" stroke-width="1.051"/>
   <path d="m96.955 115.77-4.3363 4.1841" fill="none" stroke="#1a1a1a" stroke-width="1.051"/>
   <path d="m82.301 112.85-2.0186 2.7645 7.2521 2.3162-0.37382-3.5864-4.8597-1.4943z" fill="#ccc" fill-rule="evenodd" stroke="#808080" stroke-width="1.051"/>
   <path d="m62.486 125.8c-3.2533 1.4311-6.6681 7.6316 1.792 10.205 5.0777-0.54593-6.3497-2.4288-1.792-10.205z" fill="#e6e6e6" fill-rule="evenodd"/>
   <path d="m92.415 116.73c4.1826-12.446 6.4663-19.858 8.0124-34.282l1.6466 1.0509c-1.3689 10.605-0.52703 13.347-7.034 31.981l-2.625 1.25z" fill="#1a1a1a" fill-rule="evenodd" stroke="#000" stroke-width="1.051"/>
   <path d="m71.415 112.23c-1.8325-12.308 2.4131-16.837 8.6853-27.525l2.1034-1.3996c-5.9908 10.247-11.708 16.474-8.1636 27.674l-2.625 1.25z" fill="#1a1a1a" fill-rule="evenodd" stroke="#000" stroke-width="1.051"/>
   <path d="m65.864 123.4c7.3933 1.6856 8.435 9.7824 4.9344 13.449l5.9064-2.3162c2.12-3.8283-0.96764-11.185-5.9064-12.851l-4.9344 1.7185z" fill="#333" fill-rule="evenodd" stroke="#1a1a1a" stroke-width="1.051"/>
  </g>
  <path d="m103.86 113.37c-0.92309 3.4124-2.6676 7.0474-5.4465 9.2572-1.5714 0.60612-2.3803-1.6943-3.9002-0.47482-0.31638 1.5157 0.84591 2.4771 1.9603 3.4051-1.7425 1.3813-4.1912 2.0912-3.311 4.946 1.4529-0.06095 2.887-1.043 3.7596-2.091-0.51 1.4555-2.964 3.6825 0.17828 3.7601 1.7124-0.36685 1.7353-2.0471 2.4623-3.4249 0.29235 2.0417-0.49129 4.5471 2.1093 2.444 0.69833-1.1587 0.50084-2.2792 0.30697-3.5363 0.40164-1.3073 1.4376-2.3939 2.2197-3.5368 2.7524-1.9013 4.5331-4.6104 6.3427-7.3727-0.69269-3.128 2.5967-5.5498 2.181-8.5565 0.06521-1.2308-0.18291-1.9104-0.4316-3.0674l-8.6842 2.8375c-0.02188 1.7739 0.61978 3.6317 0.25335 5.4106z" fill="#e9d2af" fill-rule="evenodd" stroke="#3f2d10" stroke-width="1.1232"/>
 </g>
</svg>
